Coordinates
version=1
nRows=6
nColumns=63
inDegrees=yes

Units are S.I. units (second, meters, Newtons, ...)
If the header above contains a line with 'inDegrees', this indicates whether rotational values are in degrees (yes) or radians (no).

endheader
time	pelvis_tilt	pelvis_list	pelvis_rotation	pelvis_tx	pelvis_ty	pelvis_tz	hip_flexion_r	hip_adduction_r	hip_rotation_r	knee_angle_r	knee_angle_r_beta	ankle_angle_r	subtalar_angle_r	mtp_angle_r	hip_flexion_l	hip_adduction_l	hip_rotation_l	knee_angle_l	knee_angle_l_beta	ankle_angle_l	subtalar_angle_l	mtp_angle_l	L5_S1_Flex_Ext	L5_S1_Lat_Bending	L5_S1_axial_rotation	L4_L5_Flex_Ext	L4_L5_Lat_Bending	L4_L5_axial_rotation	L3_L4_Flex_Ext	L3_L4_Lat_Bending	L3_L4_axial_rotation	L2_L3_Flex_Ext	L2_L3_Lat_Bending	L2_L3_axial_rotation	L1_L2_Flex_Ext	L1_L2_Lat_Bending	L1_L2_axial_rotation	L1_T12_Flex_Ext	L1_T12_Lat_Bending	L1_T12_axial_rotation	Abs_r3	Abs_r2	Abs_r1	Abs_t1	Abs_t2	neck_flexion	neck_bending	neck_rotation	arm_flex_r	arm_add_r	arm_rot_r	elbow_flex_r	pro_sup_r	wrist_flex_r	wrist_dev_r	arm_flex_l	arm_add_l	arm_rot_l	elbow_flex_l	pro_sup_l	wrist_flex_l	wrist_dev_l
4.085106	-14.720185	-25.284488	86.836537	0.136393	0.484136	0.785688	45.896364	-4.059043	4.964743	49.457832	0.863202	54.561080	5.115702	0.000000	34.450722	0.609459	-24.933733	35.870003	0.626050	53.787694	15.668406	0.000000	-0.373251	-1.746688	4.392537	-0.693165	-2.323095	4.667071	-0.613214	-4.246897	4.667071	-0.426589	-4.246897	3.843470	-0.346601	-3.561846	3.568937	-0.213276	-2.705620	3.294403	-2.666095	-19.758884	24.429975	0.000000	0.000000	0.581448	4.018672	-14.819510	1.798619	-7.977492	-6.957026	121.378771	89.221936	13.120042	19.223772	-39.050364	-34.261938	1.898775	91.101384	88.876330	-24.127851	-21.027545
4.106383	-14.971379	-25.466268	86.437535	0.136865	0.482711	0.787025	46.440711	-4.032446	5.234325	49.843540	0.869934	54.548510	5.159131	0.000000	35.005949	0.447747	-25.317441	36.452196	0.636211	53.937709	15.738622	0.000000	-0.371454	-1.794522	4.393901	-0.689826	-2.386714	4.668520	-0.610261	-4.363200	4.668520	-0.424534	-4.363200	3.844663	-0.344932	-3.659389	3.570045	-0.212249	-2.779714	3.295426	-2.653256	-20.299990	24.437560	0.000000	0.000000	0.410317	4.160357	-14.835308	0.829272	-7.321427	-6.444186	120.949837	89.179962	11.487389	19.220503	-37.974118	-34.499418	3.028246	90.449519	88.862025	-25.198865	-20.658234
4.127660	-15.085394	-25.645976	86.176820	0.136971	0.481474	0.788515	46.929914	-3.985195	5.362575	50.156575	0.875397	54.503440	5.182711	0.000000	35.593065	0.253636	-25.508976	37.051373	0.646668	54.054514	15.742093	0.000000	-0.370928	-1.822981	4.364784	-0.688851	-2.424565	4.637583	-0.609398	-4.432396	4.637583	-0.423934	-4.432396	3.819186	-0.344444	-3.717423	3.546387	-0.211948	-2.823798	3.273588	-2.649502	-20.621927	24.275621	0.000000	0.000000	0.236644	4.246102	-14.720080	-0.145779	-6.799356	-5.791620	120.503832	89.112110	9.349673	18.928025	-36.907648	-34.585059	4.118993	89.694913	88.824337	-25.804058	-20.167517
4.148936	-15.040850	-25.847948	86.076147	0.136674	0.480409	0.790078	47.378183	-3.932810	5.288342	50.390296	0.879477	54.444824	5.264328	0.000000	36.236008	0.017833	-25.501395	37.670715	0.657478	54.150174	15.706946	0.000000	-0.366590	-1.828708	4.293864	-0.680794	-2.432181	4.562231	-0.602271	-4.446320	4.562231	-0.418976	-4.446320	3.757131	-0.340416	-3.729101	3.488765	-0.209470	-2.832669	3.220398	-2.618516	-20.686709	23.881184	0.000000	0.000000	0.045672	4.193857	-14.396858	-1.093652	-6.416205	-4.996229	119.992946	89.073115	6.961325	18.187633	-35.936861	-34.484320	5.028910	88.854948	88.802964	-25.735708	-19.509054
4.170213	-14.869901	-26.050876	86.088809	0.136033	0.479577	0.791645	47.766984	-3.859247	5.085915	50.545529	0.882186	54.370831	5.364455	0.000000	36.878800	-0.250713	-25.352966	38.264529	0.667842	54.230286	15.650545	0.000000	-0.364405	-1.815808	4.203571	-0.676737	-2.415025	4.466294	-0.598681	-4.414956	4.466294	-0.416478	-4.414956	3.678124	-0.338386	-3.702796	3.415401	-0.208221	-2.812687	3.152678	-2.602909	-20.540783	23.378999	0.000000	0.000000	-0.130767	4.051464	-14.050193	-2.036200	-6.153437	-4.178035	119.469635	89.057510	4.447075	17.124967	-34.999770	-34.308447	5.930206	87.978866	88.788778	-25.410291	-18.670843
4.191489	-14.560825	-26.253265	86.241265	0.135019	0.478994	0.793128	48.082505	-3.776796	4.729213	50.615566	0.883408	54.299586	5.498056	0.000000	37.514934	-0.540057	-25.036202	38.826887	0.677657	54.297333	15.567534	0.000000	-0.362112	-1.781839	4.071855	-0.672479	-2.369846	4.326346	-0.594914	-4.332364	4.326346	-0.413858	-4.332364	3.562873	-0.336257	-3.633527	3.308382	-0.206911	-2.760069	3.053891	-2.586531	-20.156523	22.646435	0.000000	0.000000	-0.321811	3.766566	-13.513012	-2.888828	-6.032596	-3.251392	118.879149	89.055780	1.987284	15.800013	-34.205064	-33.970863	6.634201	87.091418	88.782970	-24.736473	-17.700927
